<svg id="Capa_1" enable-background="new 0 0 512 512" height="100" viewBox="0 0 512 512" width="100" fill="#ffffff" xmlns="http://www.w3.org/2000/svg"><g><g><path d="m332.429 173.887-19.29 86.604 76.002-45.783 76.406 45.108-20.057-86.431 66.51-58.726-88.397-7.634-35.3-81.403-34.576 81.713-88.326 8.417z"/></g><g><path d="m138.138 206.446c0-95.839 62.86-176.986 149.597-204.489-10.399-1.286-20.988-1.957-31.735-1.957-141.385 0-256 114.615-256 256s114.615 256 256 256c97.062 0 181.504-54.02 224.911-133.634-35.777 26.739-80.18 42.573-128.28 42.573-118.462 0-214.493-96.032-214.493-214.493z"/></g></g></svg>